<?xml version="1.0"?>
<svg xmlns="http://www.w3.org/2000/svg" xmlns:xlink="http://www.w3.org/1999/xlink" xmlns:svgjs="http://svgjs.com/svgjs" version="1.1" width="512" height="512" x="0" y="0" viewBox="0 0 512 512" style="enable-background:new 0 0 512 512" xml:space="preserve"><g><g xmlns="http://www.w3.org/2000/svg"><g id="Page-1_12_"><g id="_x30_13---Chat-Bot"><circle id="Oval_21_" cx="155.429" cy="227.368" r="18.286" fill="#ffffff" data-original="#000000" style=""/><path id="Shape_76_" d="m100.571 81.083h310.857c35.33.04 63.96 28.67 64 64v27.429h9.143c3.071-.003 6.134.303 9.143.914v-37.486c-.045-40.377-32.766-73.098-73.143-73.143h-329.142c-40.377.045-73.098 32.766-73.143 73.143v37.486c3.009-.611 6.072-.917 9.143-.914h9.143v-27.429c.04-35.33 28.67-63.96 63.999-64z" fill="#ffffff" data-original="#000000" style=""/><circle id="Oval_20_" cx="356.571" cy="227.368" r="18.286" fill="#ffffff" data-original="#000000" style=""/><path id="Shape_75_" d="m411.429 99.368h-310.858c-25.247 0-45.714 20.467-45.714 45.714v201.143c.032 25.006 20.125 45.36 45.129 45.714 4.927-.078 9.684 1.805 13.223 5.234s5.571 8.124 5.648 13.052v29.833c-.001 3.373 1.856 6.472 4.83 8.063s6.582 1.416 9.388-.456l76.681-51.154c4.505-2.993 9.796-4.584 15.205-4.571h186.469c25.247 0 45.714-20.467 45.714-45.714v-201.143c-.001-25.248-20.468-45.715-45.715-45.715zm27.428 246.858c0 15.148-12.28 27.429-27.429 27.429h-310.857c-15.148 0-27.429-12.28-27.429-27.429v-201.143c0-15.148 12.28-27.429 27.429-27.429h310.857c15.148 0 27.429 12.28 27.429 27.429z" fill="#ffffff" data-original="#000000" style=""/><path id="Shape_74_" d="m0 218.226v36.571c0 15.148 12.28 27.429 27.429 27.429h9.143v-91.429h-9.143c-15.149 0-27.429 12.28-27.429 27.429z" fill="#ffffff" data-original="#000000" style=""/><path id="Shape_73_" d="m484.571 190.797h-9.143v91.429h9.143c15.148 0 27.429-12.28 27.429-27.429v-36.571c0-15.149-12.28-27.429-27.429-27.429z" fill="#ffffff" data-original="#000000" style=""/><path id="Shape_72_" d="m411.429 135.94h-310.858c-5.049 0-9.143 4.093-9.143 9.143v201.143c0 5.049 4.093 9.143 9.143 9.143h310.857c5.049 0 9.143-4.093 9.143-9.143v-201.143c0-5.05-4.093-9.143-9.142-9.143zm-256 128c-20.198 0-36.571-16.374-36.571-36.571s16.374-36.571 36.571-36.571 36.571 16.373 36.571 36.57-16.374 36.572-36.571 36.572zm145.371 13.23c-9.404 15.535-26.68 24.536-44.8 23.342-18.104 1.177-35.358-7.822-44.754-23.342-2.016-4.463-.158-9.722 4.214-11.927 4.372-2.206 9.706-.575 12.097 3.699 6.385 9.242 17.258 14.321 28.443 13.285 11.201 1.026 22.082-4.079 28.453-13.349 2.375-4.408 7.836-6.113 12.297-3.84 4.453 2.244 6.261 7.661 4.05 12.132zm55.771-13.23c-20.198 0-36.571-16.374-36.571-36.571s16.374-36.571 36.571-36.571c20.198 0 36.571 16.374 36.571 36.571s-16.373 36.571-36.571 36.571z" fill="#ffffff" data-original="#000000" style=""/></g></g></g></g></svg>
