<?xml version="1.0"?>
<svg xmlns="http://www.w3.org/2000/svg" xmlns:xlink="http://www.w3.org/1999/xlink" xmlns:svgjs="http://svgjs.com/svgjs" version="1.1" width="512" height="512" x="0" y="0" viewBox="0 0 448 448" style="enable-background:new 0 0 512 512" xml:space="preserve" class=""><g transform="matrix(1,-2.4492935982947064e-16,2.4492935982947064e-16,1,5.684341886080802e-14,1.7053025658242404e-13)"><path xmlns="http://www.w3.org/2000/svg" d="m122.160156 207.160156 83.511719 23.855469 83.519531-83.519531zm0 0" fill="#1a7fc9" data-original="#000000" style="" class=""/><path xmlns="http://www.w3.org/2000/svg" d="m240.839844 325.839844 59.664062-167.03125-83.519531 83.519531zm0 0" fill="#1a7fc9" data-original="#000000" style="" class=""/><path xmlns="http://www.w3.org/2000/svg" d="m224 0c-123.710938 0-224 100.289062-224 224s100.289062 224 224 224 224-100.289062 224-224c-.140625-123.652344-100.347656-223.859375-224-224zm103.527344 130.6875-80 224c-1.136719 3.183594-4.148438 5.308594-7.527344 5.3125h-.257812c-3.476563-.109375-6.484376-2.453125-7.4375-5.800781l-20.578126-72.039063-56.910156 21.34375c-.902344.328125-1.855468.496094-2.816406.496094-2.625.003906-5.085938-1.285156-6.582031-3.441406-1.496094-2.160156-1.839844-4.917969-.914063-7.375l21.34375-56.910156-72.039062-20.578126c-3.324219-.964843-5.648438-3.960937-5.761719-7.417968-.109375-3.460938 2.011719-6.597656 5.265625-7.78125l224-80c2.90625-1.03125 6.152344-.300782 8.332031 1.882812 2.183594 2.179688 2.917969 5.425782 1.882813 8.332032zm0 0" fill="#1a7fc9" data-original="#000000" style="" class=""/><path xmlns="http://www.w3.org/2000/svg" d="m181.289062 240.6875-15.617187 41.640625 41.640625-15.617187-5.785156-20.238282zm0 0" fill="#1a7fc9" data-original="#000000" style="" class=""/></g></svg>
